<svg xmlns="http://www.w3.org/2000/svg" xmlns:xlink="http://www.w3.org/1999/xlink" version="1.1" id="Layer_1" x="0px" y="0px" width="50px" height="50px" viewBox="0 0 26 26" enable-background="new 0 0 26 26" xml:space="preserve">


<path fill="#000000" d="M13,0.188C5.924,0.188,0.188,5.924,0.188,13S5.924,25.813,13,25.813S25.813,20.076,25.813,13  S20.076,0.188,13,0.188z M13,23.813C7.038,23.813,2.188,18.962,2.188,13S7.038,2.188,13,2.188S23.813,7.038,23.813,13  S18.962,23.813,13,23.813z"/>
<path fill="none" stroke="#000000" stroke-width="0.25" stroke-linecap="round" stroke-linejoin="round" stroke-miterlimit="10" d="  M20.162,14.484c0,0,1.285-0.221,2.053-0.21c0.768,0.01,1.641,0.242,1.641,0.242"/>
<path fill="none" stroke="#000000" stroke-width="0.25" stroke-linecap="round" stroke-linejoin="round" stroke-miterlimit="10" d="  M19.836,14.897c0,0,1.473-0.131,2.084-0.116c0.842,0.021,1.746,0.284,1.746,0.284"/>
<path fill="none" stroke="#000000" stroke-width="0.25" stroke-linecap="round" stroke-linejoin="round" stroke-miterlimit="10" d="  M6.635,14.412c0,0-1.826-0.173-2.395-0.173s-1.654,0.173-2.172,0.321"/>
<path fill="none" stroke="#000000" stroke-width="0.25" stroke-linecap="round" stroke-linejoin="round" stroke-miterlimit="10" d="  M7.055,14.979c0,0-1.92-0.178-2.789-0.073c-1.037,0.123-1.951,0.666-1.951,0.666"/>
<path fill="#000000" d="M6.306,13.002c0-3.073,3.219-5.891,7.189-5.891s7.189,2.817,7.189,5.891c0,3.074-2.309,5.243-7.189,5.243  S6.306,16.076,6.306,13.002z"/>
<path fill="#000000" d="M16.209,7.703c0,0,1.133-1.562,3.211-1.562c0.833,0.832,0.263,3.212-0.006,3.922L16.209,7.703z"/>
<path fill="#000000" d="M10.855,7.703c0,0-1.133-1.562-3.211-1.562C6.812,6.974,7.382,9.354,7.65,10.063L10.855,7.703z"/>
<path fill="#000000" d="M10.375,20.996c0,0-1.587,0-1.883,0c-0.821,0-1.551-0.353-1.905-1.009c-0.393-0.729-0.765-1.551-1.739-2.233  c-0.17-0.119-0.073-0.294,0.26-0.259c0.331,0.038,0.957,0.111,1.437,0.737c0.478,0.627,0.998,1.344,1.891,1.344  s1.853,0.023,2.343-0.615L10.375,20.996z"/>
<path fill="#000000" d="M14.294,17.688h-1.588c-1.495,0-2.706,2.13-2.706,3.625v2.734c0,0.845,0.395,1.186,1,1.33v-3.268  c0-0.276,0.224-0.5,0.5-0.5s0.5,0.224,0.5,0.5v3.37c0.227,0.004,0.46,0.005,0.706,0.005H13V21.5c0-0.276,0.224-0.5,0.5-0.5  s0.5,0.224,0.5,0.5v3.984h0.294c0.246,0,0.479-0.001,0.706-0.005v-3.37c0-0.276,0.224-0.5,0.5-0.5s0.5,0.224,0.5,0.5v3.268  c0.605-0.145,1-0.485,1-1.33v-2.734C17,19.817,15.789,17.688,14.294,17.688z"/>
</svg>
