<svg xmlns="http://www.w3.org/2000/svg"><symbol id="fb" viewBox="0 0 500.933 500.933"><path d="M401.532 45.9c0-26.917-18.7-45.9-45.617-45.9h-36.834c-9.917 0-17.85 0-25.217.283-32.3 1.133-61.2 12.183-83.867 31.733-22.95 19.833-37.683 47.317-42.5 79.333-2.267 15.3-2.55 30.033-2.55 44.2h-18.133c-6.233 0-22.667 0-35.133 12.75-12.467 12.467-12.467 28.9-12.467 35.133v60.917c0 7.083 0 23.233 13.033 35.983 12.467 12.183 28.9 12.183 35.7 12.183h17.283V333.2c0 39.667-.283 79.617-.283 119.283 0 7.65-.283 23.233 12.183 35.7 12.467 12.75 28.05 12.75 35.7 12.75h58.083c12.467 0 27.767 0 40.233-12.183 12.75-12.467 12.75-28.05 12.75-40.233V313.083h28.05c28.617 0 46.75-18.133 46.75-47.033v-62.617c0-6.233 0-22.383-12.75-34.85-12.467-12.183-28.333-12.467-34.567-12.467-5.1 0-10.483-.85-15.583-.85-3.683 0-7.65-.567-11.333-.567h-.283v-2.833c4.817 0 9.633.283 14.733.283s10.483.283 15.867 0c28.333-.567 46.183-18.133 46.467-45.9V62.332c.568-5.665.568-11.049.285-16.432zm-34 59.783c0 9.633-2.833 12.183-13.033 12.467-13.317.283-26.35 0-39.667.567-16.717.567-23.517 7.65-24.083 24.367-.567 15.583 0 31.45 0 48.45H313.982c7.367 0 15.017-.85 22.383-.85 5.1 0 10.2-.283 15.3-.283 11.05 0 13.6 2.267 13.6 13.317v62.333c0 10.2-2.833 13.033-13.033 13.033H290.465v170c0 18.133-.567 18.417-18.983 18.417h-58.083c-12.183 0-13.883-1.983-13.883-14.45 0-54.117.283-108.517.283-162.633v-11.333H148.515c-12.183 0-14.733-2.267-14.733-14.167v-60.633c0-11.617 2.55-14.167 13.883-14.167h51c.283-3.967.283-7.367.567-10.767.567-20.683-.567-41.933 2.55-62.333 7.367-49.017 44.2-80.467 93.783-82.167 7.933-.283 16.15-.283 24.083-.283 8.783 0 17.567.567 26.35.567 3.4 0 7.083.567 10.483.567h.283c7.933 0 11.617 3.4 11.617 11.333-.566 19.548-.566 38.815-.849 58.648z"/></symbol><symbol id="gh" viewBox="0 0 26 26"><path d="M13 .188C5.924.188.188 5.924.188 13S5.924 25.813 13 25.813 25.813 20.076 25.813 13 20.076.188 13 .188zm0 23.625C7.038 23.813 2.188 18.962 2.188 13S7.038 2.188 13 2.188 23.813 7.038 23.813 13 18.962 23.813 13 23.813z"/><path fill="none" stroke="#000" stroke-width=".25" stroke-linecap="round" stroke-linejoin="round" stroke-miterlimit="10" d="M20.162 14.484s1.285-.221 2.053-.21c.768.01 1.641.242 1.641.242M19.836 14.897s1.473-.131 2.084-.116c.842.021 1.746.284 1.746.284M6.635 14.412s-1.826-.173-2.395-.173-1.654.173-2.172.321M7.055 14.979s-1.92-.178-2.789-.073c-1.037.123-1.951.666-1.951.666"/><path d="M6.306 13.002c0-3.073 3.219-5.891 7.189-5.891s7.189 2.817 7.189 5.891-2.309 5.243-7.189 5.243-7.189-2.169-7.189-5.243zM16.209 7.703s1.133-1.562 3.211-1.562c.833.832.263 3.212-.006 3.922l-3.205-2.36z"/><path d="M10.855 7.703S9.722 6.141 7.644 6.141c-.832.833-.262 3.213.006 3.922l3.205-2.36zM10.375 20.996H8.492c-.821 0-1.551-.353-1.905-1.009-.393-.729-.765-1.551-1.739-2.233-.17-.119-.073-.294.26-.259.331.038.957.111 1.437.737.478.627.998 1.344 1.891 1.344s1.853.023 2.343-.615l-.404 2.035z"/><path d="M14.294 17.688h-1.588c-1.495 0-2.706 2.13-2.706 3.625v2.734c0 .845.395 1.186 1 1.33v-3.268a.5.5 0 0 1 1 0v3.37c.227.004.46.005.706.005H13V21.5a.5.5 0 0 1 1 0v3.984h.294c.246 0 .479-.001.706-.005v-3.37a.5.5 0 0 1 1 0v3.268c.605-.145 1-.485 1-1.33v-2.734c0-1.496-1.211-3.625-2.706-3.625z"/></symbol><symbol id="instagram" viewBox="0 0 300 300"><path d="M38.52.012h222.978C282.682.012 300 17.336 300 38.52v222.978c0 21.178-17.318 38.49-38.502 38.49H38.52c-21.184 0-38.52-17.313-38.52-38.49V38.52C0 17.336 17.336.012 38.52.012zm180.026 33.317c-7.438 0-13.505 6.091-13.505 13.525v32.314c0 7.437 6.067 13.514 13.505 13.514h33.903c7.426 0 13.506-6.077 13.506-13.514V46.854c0-7.434-6.08-13.525-13.506-13.525h-33.903zm47.538 93.539h-26.396a87.715 87.715 0 0 1 3.86 25.759c0 49.882-41.766 90.34-93.266 90.34-51.487 0-93.254-40.458-93.254-90.34 0-8.963 1.37-17.584 3.861-25.759H33.35V253.6c0 6.563 5.359 11.902 11.916 11.902h208.907c6.563 0 11.911-5.339 11.911-11.902V126.868zm-115.801-35.89c-33.26 0-60.24 26.128-60.24 58.388 0 32.227 26.98 58.375 60.24 58.375 33.278 0 60.259-26.148 60.259-58.375 0-32.261-26.981-58.388-60.259-58.388z"/></symbol><symbol id="load" viewBox="0 0 150 150"><circle cx="75" cy="75" r="60"/><circle cx="75" cy="75" r="60"/></symbol><symbol id="triangle" viewBox="0 0 100 100" preserveAspectRatio="none"><path d="M0 100L100 0v100z"/></symbol><symbol id="triangle2" viewBox="0 0 100 100" preserveAspectRatio="none"><path d="M0 100L50 0l50 100z"/></symbol><symbol id="tw" viewBox="0 0 611.981 611.981"><path d="M605.95 114.16c-4.909-3.356-11.387-3.245-16.144.319-3.287 2.455-8.183 4.632-13.896 6.532 18.82-23.342 19.098-38.944 18.82-42.786a13.893 13.893 0 0 0-7.947-11.539c-4.549-2.136-9.875-1.664-13.952 1.276-25.658 18.363-51.329 22.357-66.308 22.884-24.382-22.648-55.906-35.061-89.414-35.061-72.494 0-131.479 58.957-131.479 131.451 0 5.243.305 10.485.929 15.672C165.581 199.899 67.457 85.867 66.472 84.703a13.773 13.773 0 0 0-11.789-4.854 13.908 13.908 0 0 0-10.763 6.824c-30.789 52.633-18.224 102.506 2.885 137.387-3.925-2.108-8.668-2.247-12.746-.208a13.873 13.873 0 0 0-7.697 12.191c-.901 55.296 24.354 88.443 49.832 107.748a13.765 13.765 0 0 0-4.979 3.482 13.875 13.875 0 0 0-3.01 13.453c17.711 57.127 59.318 78.539 88.513 86.557-33.48 23.605-74.893 29.139-106.362 29.139-20.096 0-33.938-2.385-34.077-2.414-6.269-1.109-12.565 2.262-15.131 8.143a13.856 13.856 0 0 0 4.383 16.6c63.146 47.475 139.397 57.447 192.253 57.447 41.773 0 70.801-6.104 72.271-6.422 271.306-63.354 281.611-306.618 281.181-350.943 50.857-46.725 58.957-64.963 60.233-69.512a13.857 13.857 0 0 0-5.519-15.161zm-78.054 68.444a13.877 13.877 0 0 0-4.521 11.234c.181 2.635 15.006 264.801-259.365 328.877-.264.055-27.6 5.756-66.239 5.756-36.004 0-83.658-4.924-129.135-24.881 41.635-2.664 92.687-15.438 129.412-56.059 3.675-4.078 4.577-9.918 2.344-14.938-2.233-5.008-7.239-8.238-12.718-8.238-2.58 0-57.168-.652-84.49-51.398 12.648.402 24.118-1.471 32.62-5.34 5.45-2.482 8.668-8.17 8.03-14.119-.638-5.949-5.048-10.818-10.901-12.08-2.954-.637-65.795-14.951-77.126-81.231 9.847 3.759 21.83 6.366 33.425 4.66a13.89 13.89 0 0 0 11.303-9.902 13.889 13.889 0 0 0-4.341-14.382c-2.773-2.358-62.702-54.436-36.669-122.588C94.433 153.41 189.422 236.819 303.967 230.37a13.874 13.874 0 0 0 10.401-5.658 13.914 13.914 0 0 0 2.247-11.636 104.148 104.148 0 0 1-3.231-25.824c0-57.182 46.53-103.713 103.74-103.713 28.029 0 54.283 10.998 73.95 30.983a13.894 13.894 0 0 0 9.652 4.133l2.136.014c10.194 0 26.171-1.234 44.492-7.143-5.866 6.199-13.494 13.189-23.383 20.831a13.872 13.872 0 0 0-4.452 15.963c2.205 5.728 7.975 9.334 14.021 8.834 2.247-.18 12.121-1.04 24.34-3.231-7.697 7.878-17.502 17.35-29.984 28.681z"/></symbol><symbol id="vk" viewBox="0 0 50 50"><path d="M39.593 0H10.407C4.668 0 0 4.667 0 10.404v29.192C0 45.333 4.668 50 10.407 50h29.185C45.331 50 50 45.333 50 39.596V10.404C50 4.667 45.331 0 39.593 0zm.873 34.921l-4.542.062s-.979.188-2.262-.676c-1.699-1.14-3.299-4.104-4.549-3.721-1.049.321-1.271 1.53-1.271 2.771 0 .444-.318.644-1.162.644h-2.033c-2.744 0-5.466-.125-8.437-3.303-4.202-4.494-8.113-12.879-8.113-12.879s-.218-.456.019-.733c.269-.311.999-.272.999-.272l4.859-.002s.457.089.786.325c.271.194.422.565.422.565s.786 1.949 1.826 3.709c2.031 3.435 2.975 4.188 3.664 3.819 1.006-.536.704-4.854.704-4.854s.019-1.568-.506-2.266c-.405-.541-1.17-.699-1.508-.743-.274-.036.174-.657.756-.937.875-.419 2.419-.442 4.245-.424 1.421.014 1.831.101 2.386.232 1.676.396 1.106 1.926 1.106 5.595 0 1.175-.217 2.828.649 3.376.373.236 1.284.035 3.56-3.751 1.082-1.795 1.89-3.905 1.89-3.905s.178-.328.453-.489c.282-.165.272-.162.659-.162.388 0 4.265-.031 5.115-.031s1.647-.01 1.785.5c.197.733-.574 2.377-2.664 5.104-3.432 4.476-3.813 4.058-.965 6.646 2.721 2.473 3.285 3.676 3.377 3.826 1.129 1.83-1.248 1.974-1.248 1.974z"/></symbol></svg>